<svg width="793" height="785" viewBox="0 0 793 785" fill="none" xmlns="http://www.w3.org/2000/svg">
<path d="M510.337 353.525L576.307 467.261C580.055 473.66 585.819 476.337 591.957 476.337C601.124 476.337 610.666 469.602 610.666 458.161L611 230.715C611 219.274 601.823 212.205 592.626 212.205C586.498 212.205 580.389 215.238 576.652 221.616L510.337 335.016C508.647 337.714 507.948 341.082 507.948 344.092C507.97 347.482 508.647 350.493 510.337 353.525Z" fill="#2FC18C"/>
<path d="M441.999 392.218L508.312 505.617C510.002 508.65 511.038 512.018 511.038 515.029C511.038 524.796 502.203 533.204 492.331 533.204C489.266 533.204 486.2 532.535 483.157 530.84L284.221 416.771C277.753 413.069 275.048 407.003 275.048 401.294C275.048 391.883 282.193 382.45 293.756 382.45L426.042 383.119C432.803 383.141 438.934 386.509 441.999 392.218Z" fill="#2FC18C"/>
<path d="M425.679 304.063H293.37C281.808 304.063 275 294.987 275 285.887C275 279.821 277.728 273.778 284.174 270.076L483.448 156.676C486.535 155.004 489.94 154 493.005 154C502.877 154 511.375 162.407 511.375 172.51C511.375 175.543 510.36 178.576 508.647 181.586L441.659 294.987C438.256 300.695 432.463 304.063 425.679 304.063Z" fill="#2FC18C"/>
<path d="M728.769 90.9133C699.501 54.225 663.913 50.8372 630.169 77.7566C598.343 103.146 591.456 143.107 618.841 177.436C648.3 214.363 689.269 210.745 723.723 183.259C738.791 171.238 752.853 154.984 764.064 135.187L738.507 112.968C731.268 128.423 719.797 143.001 707.356 152.925C686.777 169.342 668.752 171.182 654.687 158.91L733.092 96.3629C733.107 96.3508 729.138 91.3762 728.769 90.9133ZM648.692 100.944C662.114 90.2361 676.214 91.0626 689.304 103.012L641.383 141.242C633.319 125.527 635.602 111.386 648.692 100.944Z" fill="white"/>
<path d="M511.272 172.607C498.152 183.074 490.098 199.18 488.568 214.822L449.052 165.287L448.81 165.48L427.387 201.93L531.637 332.609L562.74 307.797L552.515 294.98C568.951 297.342 586.421 292.791 599.329 282.493C629.948 258.067 630.739 218.3 605.63 186.826C579.922 154.631 541.408 148.566 511.272 172.607ZM569.365 262.617C552.621 275.974 533.739 272.435 519.963 255.167C506.175 237.884 506.55 218.223 523.294 204.866C539.087 192.267 558.807 195.896 572.595 213.18C586.371 230.448 585.158 250.018 569.365 262.617Z" fill="white"/>
<path d="M431.958 347.055L401.172 264.302L436.11 236.43L489.648 412.991L454.952 440.67L442.965 395.231L325.319 324.814L360.256 296.943L431.958 347.055Z" fill="white"/>
<path d="M291.753 377.944C290.036 363.032 295.004 348.631 309.347 337.189L344.202 357.809L344.152 358.24C340.151 359.11 334.614 361.987 328.876 366.564C310.457 381.258 310.462 401.396 324.81 419.382L362.957 467.199L331.855 492.011L247.816 386.667L278.918 361.855L291.753 377.944Z" fill="white"/>
<path d="M169.102 388.618L198.751 425.784L229.853 400.972L250.625 427.009L219.523 451.821L251.245 491.586C260.315 502.955 270.933 501.059 279.071 494.567C284.567 490.182 288.755 484.128 290.984 478.096L291.226 477.903L311.807 503.702C308.092 511.31 298.548 522.419 290.651 528.718C267.941 546.861 241.868 543.631 223.933 521.149L147.45 425.276L168.872 388.825L169.114 388.633L169.102 388.618Z" fill="white"/>
<path d="M294.773 660.858C260.682 660.858 232.947 688.593 232.947 722.685C232.947 756.776 260.682 784.512 294.773 784.512C328.865 784.512 356.6 756.776 356.6 722.685C356.599 688.593 328.864 660.858 294.773 660.858ZM294.773 749.988C279.717 749.988 267.468 737.737 267.468 722.682C267.468 707.625 279.718 695.376 294.773 695.376C309.829 695.376 322.079 707.626 322.079 722.682C322.079 737.74 309.829 749.988 294.773 749.988Z" fill="black"/>
<path d="M511.639 660.858C477.548 660.858 449.812 688.593 449.812 722.685C449.812 756.776 477.548 784.512 511.639 784.512C545.731 784.512 573.466 756.776 573.466 722.685C573.465 688.593 545.729 660.858 511.639 660.858ZM511.639 749.988C496.583 749.988 484.334 737.737 484.334 722.682C484.334 707.625 496.584 695.376 511.639 695.376C526.696 695.376 538.945 707.626 538.945 722.682C538.945 737.74 526.695 749.988 511.639 749.988Z" fill="black"/>
<path d="M695.231 258.439C688.649 250.36 678.895 245.728 668.472 245.728H130.822L119.964 193.018C117.697 182.022 110.197 172.79 99.8981 168.318L24.1374 135.433C15.3911 131.634 5.22644 135.648 1.43271 144.391C-2.36514 153.138 1.64828 163.304 10.3905 167.097L86.1525 199.983L169.67 605.391C172.959 621.356 187.179 632.945 203.481 632.945H616.996C626.529 632.945 634.257 625.218 634.257 615.684C634.257 606.151 626.529 598.424 616.996 598.424H203.482L193.323 549.109H620.193C636.493 549.109 650.714 537.521 654.003 521.555L702.283 287.21C704.385 277.006 701.815 266.517 695.231 258.439ZM620.193 514.591H186.212L137.934 280.247L668.47 280.249L620.193 514.591Z" fill="black"/>
</svg>
